<mxfile host="drawio-plugin" modified="2022-04-18T06:28:46.300Z" agent="5.0 (Macintosh; Intel Mac OS X 12_3_1) AppleWebKit/537.36 (KHTML, like Gecko) Chrome/89.0.4389.114 Safari/537.36" etag="FybCgIPwh8gHZAUlSW8q" version="15.5.4" type="embed"><diagram id="lH98AdVxCEEs6BYMDhcJ" name="第 1 页"><mxGraphModel dx="845" dy="1322" grid="1" gridSize="10" guides="1" tooltips="1" connect="1" arrows="1" fold="1" page="1" pageScale="1" pageWidth="827" pageHeight="1169" math="0" shadow="0"><root><mxCell id="jdvE30vghg8lItGW4Tqt-0"/><mxCell id="jdvE30vghg8lItGW4Tqt-1" parent="jdvE30vghg8lItGW4Tqt-0"/><mxCell id="iNYlAzNFLIW0T-bIdlnN-19" style="edgeStyle=orthogonalEdgeStyle;rounded=0;orthogonalLoop=1;jettySize=auto;html=1;exitX=0.5;exitY=1;exitDx=0;exitDy=0;" parent="jdvE30vghg8lItGW4Tqt-1" source="iNYlAzNFLIW0T-bIdlnN-1" target="iNYlAzNFLIW0T-bIdlnN-18" edge="1"><mxGeometry relative="1" as="geometry"/></mxCell><mxCell id="iNYlAzNFLIW0T-bIdlnN-1" value="Ask for name input" style="rounded=1;whiteSpace=wrap;html=1;" parent="jdvE30vghg8lItGW4Tqt-1" vertex="1"><mxGeometry x="170" y="130" width="120" height="60" as="geometry"/></mxCell><mxCell id="iNYlAzNFLIW0T-bIdlnN-14" style="edgeStyle=orthogonalEdgeStyle;rounded=0;orthogonalLoop=1;jettySize=auto;html=1;exitX=0.5;exitY=1;exitDx=0;exitDy=0;entryX=0.5;entryY=0;entryDx=0;entryDy=0;" parent="jdvE30vghg8lItGW4Tqt-1" source="iNYlAzNFLIW0T-bIdlnN-2" target="iNYlAzNFLIW0T-bIdlnN-1" edge="1"><mxGeometry relative="1" as="geometry"/></mxCell><mxCell id="iNYlAzNFLIW0T-bIdlnN-2" value="show logo from art" style="rounded=1;whiteSpace=wrap;html=1;" parent="jdvE30vghg8lItGW4Tqt-1" vertex="1"><mxGeometry x="170" y="30" width="120" height="60" as="geometry"/></mxCell><mxCell id="iNYlAzNFLIW0T-bIdlnN-13" style="edgeStyle=orthogonalEdgeStyle;rounded=0;orthogonalLoop=1;jettySize=auto;html=1;entryX=0.5;entryY=0;entryDx=0;entryDy=0;" parent="jdvE30vghg8lItGW4Tqt-1" source="iNYlAzNFLIW0T-bIdlnN-3" target="iNYlAzNFLIW0T-bIdlnN-2" edge="1"><mxGeometry relative="1" as="geometry"/></mxCell><mxCell id="iNYlAzNFLIW0T-bIdlnN-3" value="Auction program START" style="rounded=1;whiteSpace=wrap;html=1;" parent="jdvE30vghg8lItGW4Tqt-1" vertex="1"><mxGeometry x="170" y="-90" width="120" height="60" as="geometry"/></mxCell><mxCell id="iNYlAzNFLIW0T-bIdlnN-6" style="edgeStyle=orthogonalEdgeStyle;rounded=0;orthogonalLoop=1;jettySize=auto;html=1;" parent="jdvE30vghg8lItGW4Tqt-1" edge="1"><mxGeometry relative="1" as="geometry"><mxPoint x="320" y="240" as="targetPoint"/><mxPoint x="320" y="240" as="sourcePoint"/></mxGeometry></mxCell><mxCell id="iNYlAzNFLIW0T-bIdlnN-21" style="edgeStyle=orthogonalEdgeStyle;rounded=0;orthogonalLoop=1;jettySize=auto;html=1;exitX=0.5;exitY=1;exitDx=0;exitDy=0;entryX=0.55;entryY=0.2;entryDx=0;entryDy=0;entryPerimeter=0;" parent="jdvE30vghg8lItGW4Tqt-1" source="iNYlAzNFLIW0T-bIdlnN-4" target="iNYlAzNFLIW0T-bIdlnN-7" edge="1"><mxGeometry relative="1" as="geometry"/></mxCell><mxCell id="iNYlAzNFLIW0T-bIdlnN-4" value="Add Name and Bid into&amp;nbsp; a dictionary as the key and value" style="rounded=1;whiteSpace=wrap;html=1;" parent="jdvE30vghg8lItGW4Tqt-1" vertex="1"><mxGeometry x="140" y="280" width="220" height="60" as="geometry"/></mxCell><mxCell id="iNYlAzNFLIW0T-bIdlnN-17" style="edgeStyle=orthogonalEdgeStyle;rounded=0;orthogonalLoop=1;jettySize=auto;html=1;exitX=0;exitY=0.25;exitDx=0;exitDy=0;entryX=0;entryY=0.75;entryDx=0;entryDy=0;" parent="jdvE30vghg8lItGW4Tqt-1" source="iNYlAzNFLIW0T-bIdlnN-5" target="iNYlAzNFLIW0T-bIdlnN-1" edge="1"><mxGeometry relative="1" as="geometry"/></mxCell><mxCell id="iNYlAzNFLIW0T-bIdlnN-5" value="Clear the screen" style="rounded=1;whiteSpace=wrap;html=1;" parent="jdvE30vghg8lItGW4Tqt-1" vertex="1"><mxGeometry x="30" y="520" width="130" height="60" as="geometry"/></mxCell><mxCell id="iNYlAzNFLIW0T-bIdlnN-9" style="edgeStyle=orthogonalEdgeStyle;rounded=0;orthogonalLoop=1;jettySize=auto;html=1;exitX=0;exitY=0.5;exitDx=0;exitDy=0;" parent="jdvE30vghg8lItGW4Tqt-1" source="iNYlAzNFLIW0T-bIdlnN-7" target="iNYlAzNFLIW0T-bIdlnN-5" edge="1"><mxGeometry relative="1" as="geometry"/></mxCell><mxCell id="iNYlAzNFLIW0T-bIdlnN-12" style="edgeStyle=orthogonalEdgeStyle;rounded=0;orthogonalLoop=1;jettySize=auto;html=1;exitX=1;exitY=0.5;exitDx=0;exitDy=0;entryX=0.431;entryY=0;entryDx=0;entryDy=0;entryPerimeter=0;" parent="jdvE30vghg8lItGW4Tqt-1" source="iNYlAzNFLIW0T-bIdlnN-7" target="iNYlAzNFLIW0T-bIdlnN-8" edge="1"><mxGeometry relative="1" as="geometry"/></mxCell><mxCell id="iNYlAzNFLIW0T-bIdlnN-7" value="Ask if there are other users who want to bid?" style="rhombus;whiteSpace=wrap;html=1;" parent="jdvE30vghg8lItGW4Tqt-1" vertex="1"><mxGeometry x="140" y="390" width="200" height="100" as="geometry"/></mxCell><mxCell id="iNYlAzNFLIW0T-bIdlnN-8" value="Find the highest bid in the dictionary and declare them as the winner" style="rounded=1;whiteSpace=wrap;html=1;" parent="jdvE30vghg8lItGW4Tqt-1" vertex="1"><mxGeometry x="340" y="510" width="290" height="70" as="geometry"/></mxCell><mxCell id="iNYlAzNFLIW0T-bIdlnN-10" value="No" style="text;html=1;strokeColor=none;fillColor=none;align=center;verticalAlign=middle;whiteSpace=wrap;rounded=0;" parent="jdvE30vghg8lItGW4Tqt-1" vertex="1"><mxGeometry x="384" y="410" width="60" height="30" as="geometry"/></mxCell><mxCell id="iNYlAzNFLIW0T-bIdlnN-11" value="Yes" style="text;html=1;strokeColor=none;fillColor=none;align=center;verticalAlign=middle;whiteSpace=wrap;rounded=0;" parent="jdvE30vghg8lItGW4Tqt-1" vertex="1"><mxGeometry x="50" y="390" width="110" height="50" as="geometry"/></mxCell><mxCell id="iNYlAzNFLIW0T-bIdlnN-20" style="edgeStyle=orthogonalEdgeStyle;rounded=0;orthogonalLoop=1;jettySize=auto;html=1;exitX=0.5;exitY=1;exitDx=0;exitDy=0;entryX=0.409;entryY=-0.05;entryDx=0;entryDy=0;entryPerimeter=0;" parent="jdvE30vghg8lItGW4Tqt-1" source="iNYlAzNFLIW0T-bIdlnN-18" target="iNYlAzNFLIW0T-bIdlnN-4" edge="1"><mxGeometry relative="1" as="geometry"/></mxCell><mxCell id="iNYlAzNFLIW0T-bIdlnN-18" value="Ask for Bid price" style="rounded=1;whiteSpace=wrap;html=1;" parent="jdvE30vghg8lItGW4Tqt-1" vertex="1"><mxGeometry x="150" y="210" width="160" height="40" as="geometry"/></mxCell></root></mxGraphModel></diagram></mxfile>